<svg xmlns="http://www.w3.org/2000/svg" xmlns:xlink="http://www.w3.org/1999/xlink" width="359" height="151.195" viewBox="0 0 359 151.195">
  <defs>
    <filter id="Rectangle_2" x="0" y="22" width="359" height="129" filterUnits="userSpaceOnUse">
      <feOffset dy="7" input="SourceAlpha"/>
      <feGaussianBlur stdDeviation="4" result="blur"/>
      <feFlood flood-color="#5940b5" flood-opacity="0.29"/>
      <feComposite operator="in" in2="blur"/>
      <feComposite in="SourceGraphic"/>
    </filter>
    <filter id="Path_33" x="0" y="22" width="359" height="129" filterUnits="userSpaceOnUse">
      <feOffset dy="7" input="SourceAlpha"/>
      <feGaussianBlur stdDeviation="4" result="blur-2"/>
      <feFlood flood-color="#007084" flood-opacity="0.153"/>
      <feComposite operator="in" in2="blur-2"/>
      <feComposite in="SourceGraphic"/>
    </filter>
    <clipPath id="clip-path">
      <g transform="matrix(1, 0, 0, 1, 0, 0)" filter="url(#Rectangle_2)">
        <rect id="Rectangle_2-2" data-name="Rectangle 2" width="335" height="105" rx="5" transform="translate(20 146)" fill="#007084"/>
      </g>
    </clipPath>
  </defs>
  <g id="banner" transform="translate(-8 -119)">
    <g transform="matrix(1, 0, 0, 1, 8, 119)" filter="url(#Path_33)">
      <path id="Path_33-2" data-name="Path 33" d="M5,0H330a5,5,0,0,1,5,5v95a5,5,0,0,1-5,5H5a5,5,0,0,1-5-5V5A5,5,0,0,1,5,0Z" transform="translate(12 27)" fill="#007084"/>
    </g>
    <g id="Mask_Group_1" data-name="Mask Group 1" clip-path="url(#clip-path)">
      <circle id="Ellipse_11" data-name="Ellipse 11" cx="114" cy="114" r="114" transform="translate(173 85)" fill="#006476"/>
    </g>
    <g id="Group_1" data-name="Group 1" transform="translate(176.628 119)">
      <ellipse id="Ellipse_1" data-name="Ellipse 1" cx="12.186" cy="1.886" rx="12.186" ry="1.886" transform="translate(3.298 125.6)" fill="#3f3d56"/>
      <circle id="Ellipse_2" data-name="Ellipse 2" cx="62.193" cy="62.193" r="62.193" transform="translate(39.711 11.143)" fill="#fff"/>
      <path id="Path_1" data-name="Path 1" d="M403.708,178.941c-.719,0-1.445-.011-2.158-.034l.016-.518c1.024.032,2.068.041,3.1.027l.007.518Q404.19,178.941,403.708,178.941Zm4.08-.12-.03-.517c1.025-.06,2.064-.146,3.086-.253l.054.515c-1.031.108-2.077.194-3.11.255Zm-9.354-.081c-1.034-.079-2.078-.183-3.105-.309l.063-.514c1.019.125,2.055.228,3.081.306Zm15.558-.57-.078-.512c1.019-.155,2.045-.334,3.05-.534l.1.508c-1.013.2-2.047.382-3.073.538Zm-21.751-.19c-1.021-.173-2.052-.372-3.064-.592l.11-.507c1,.218,2.027.416,3.04.587Zm27.87-1.027-.125-.5c1-.247,2.005-.521,2.988-.812l.147.5C422.133,176.43,421.12,176.705,420.112,176.954Zm-33.967-.3c-1-.266-2.01-.56-3-.872l.156-.494c.979.31,1.979.6,2.973.864Zm39.948-1.477-.17-.489c.97-.337,1.946-.7,2.9-1.084l.192.481c-.962.385-1.945.752-2.923,1.092Zm-45.9-.406c-.973-.358-1.952-.743-2.909-1.147l.2-.478c.95.4,1.922.783,2.887,1.138Zm51.691-1.909-.215-.472c.932-.423,1.868-.875,2.784-1.343l.236.462c-.922.471-1.866.927-2.8,1.353Zm-57.453-.517c-.935-.446-1.874-.92-2.79-1.409l.244-.457c.909.486,1.84.956,2.769,1.4Zm63-2.318-.257-.45c.894-.51,1.786-1.046,2.651-1.593l.277.438C439.224,168.976,438.326,169.516,437.425,170.03Zm-68.509-.627c-.89-.529-1.78-1.087-2.647-1.658l.285-.433c.86.567,1.744,1.121,2.627,1.646Zm73.776-2.705-.3-.425c.841-.588,1.681-1.2,2.5-1.83l.316.411C444.386,165.486,443.539,166.106,442.691,166.7Zm-78.991-.73c-.837-.608-1.672-1.244-2.484-1.892l.323-.4c.805.643,1.635,1.275,2.465,1.877Zm83.935-3.07-.334-.4c.784-.662,1.565-1.351,2.32-2.05l.352.381C449.212,161.537,448.425,162.232,447.635,162.9Zm-88.813-.825c-.779-.682-1.553-1.392-2.3-2.109l.359-.374c.742.712,1.51,1.416,2.283,2.094Zm93.393-3.411-.369-.364c.723-.733,1.438-1.491,2.125-2.253l.385.347c-.692.769-1.413,1.532-2.141,2.27Zm-97.895-.91c-.715-.752-1.421-1.529-2.1-2.309l.392-.34c.672.775,1.373,1.545,2.082,2.291Zm102.072-3.726-.4-.329c.653-.795,1.3-1.615,1.912-2.438l.415.31C457.7,152.4,457.05,153.225,456.392,154.026Zm-106.161-.984c-.642-.811-1.274-1.648-1.879-2.489l.421-.3c.6.834,1.227,1.665,1.864,2.47Zm109.9-4.016-.429-.291c.578-.851,1.144-1.727,1.682-2.6l.442.271C461.284,147.286,460.713,148.169,460.131,149.026ZM346.59,147.982c-.565-.866-1.117-1.757-1.643-2.648l.446-.263c.522.885,1.07,1.769,1.63,2.628ZM463.4,143.7l-.453-.251c.5-.9.981-1.825,1.437-2.749l.465.23C464.389,141.865,463.9,142.8,463.4,143.7Zm-119.972-1.09c-.483-.914-.952-1.851-1.393-2.786l.469-.221c.438.928.9,1.858,1.382,2.764Zm122.74-4.513-.475-.208c.413-.943.81-1.909,1.179-2.871l.484.186c-.372.969-.772,1.943-1.188,2.893Zm-125.4-1.118c-.4-.954-.778-1.929-1.131-2.9l.487-.177c.35.963.728,1.931,1.122,2.878Zm127.638-4.72-.492-.163c.323-.975.629-1.971.907-2.961l.5.14c-.281,1-.588,2-.914,2.984Zm-129.767-1.136c-.308-.988-.6-2-.861-3l.5-.132c.261,1,.549,2,.855,2.977Zm131.456-4.87-.5-.117c.232-1,.444-2.019.631-3.031l.51.094c-.188,1.021-.4,2.048-.635,3.055Zm-133.039-1.165c-.216-1.012-.412-2.043-.581-3.066l.511-.085c.168,1.015.362,2.038.577,3.042Zm134.168-4.971-.514-.07c.139-1.015.257-2.05.35-3.076l.516.047c-.094,1.035-.212,2.077-.352,3.1Zm-135.19-1.183c-.122-1.026-.223-2.071-.3-3.106l.517-.038c.075,1.027.175,2.064.3,3.082Zm135.753-5.03-.518-.023c.046-1.027.07-2.069.07-3.1h.518c0,1.035-.023,2.084-.07,3.119Zm-136.209-1.192c-.018-.635-.027-1.284-.027-1.927q0-.6.01-1.194l.518.009q-.01.591-.01,1.185c0,.638.009,1.282.027,1.912Zm135.757-2.65c-.011-1.028-.045-2.069-.1-3.1l.517-.029c.057,1.035.092,2.084.1,3.119Zm-135.132-3.556-.517-.032c.065-1.036.154-2.081.265-3.109l.515.056C336.36,104.443,336.271,105.481,336.207,106.509Zm134.788-2.626c-.1-1.022-.232-2.056-.383-3.073l.513-.076c.151,1.025.281,2.067.386,3.1Zm-134.121-3.529-.512-.079c.159-1.025.343-2.059.548-3.072l.508.1C337.214,98.311,337.031,99.337,336.874,100.354Zm133.215-2.6c-.2-1.011-.421-2.029-.663-3.025l.5-.122c.244,1,.469,2.029.668,3.048ZM338.1,94.286l-.5-.126c.252-1,.53-2.016.829-3.008l.5.149C338.628,92.285,338.351,93.29,338.1,94.286Zm130.523-2.543c-.289-.987-.6-1.979-.939-2.951l.49-.169c.337.979.655,1.979.946,2.973ZM339.886,88.348l-.489-.172c.344-.98.716-1.964,1.105-2.926l.481.194c-.386.954-.755,1.931-1.1,2.9Zm126.726-2.46c-.378-.954-.783-1.911-1.2-2.845l.473-.213c.424.941.832,1.906,1.213,2.867ZM342.212,82.6l-.471-.216c.433-.943.894-1.888,1.369-2.81l.461.238C343.1,80.722,342.641,81.66,342.212,82.6Zm121.864-2.341c-.464-.915-.955-1.832-1.461-2.725l.451-.255c.509.9,1,1.824,1.472,2.746ZM345.056,77.085l-.449-.259c.517-.9,1.062-1.8,1.621-2.671l.437.279c-.554.868-1.1,1.76-1.608,2.65ZM461.03,74.874c-.548-.872-1.121-1.74-1.7-2.581l.426-.3c.588.848,1.166,1.723,1.718,2.6ZM348.392,71.862l-.424-.3c.6-.847,1.222-1.692,1.857-2.51l.409.318C349.605,70.182,348.985,71.021,348.392,71.862ZM457.5,69.79c-.625-.818-1.275-1.631-1.934-2.417l.4-.333c.663.792,1.319,1.611,1.948,2.435ZM352.189,66.966l-.395-.336c.671-.788,1.369-1.571,2.077-2.33l.379.354C353.548,65.407,352.855,66.185,352.189,66.966Zm101.34-1.92c-.7-.758-1.418-1.509-2.146-2.232l.365-.368c.733.729,1.461,1.486,2.162,2.249Zm-97.115-2.608-.362-.37c.741-.725,1.508-1.442,2.279-2.13l.345.387C357.911,61.008,357.15,61.719,356.414,62.438Zm92.724-1.757c-.763-.692-1.551-1.375-2.341-2.029l.331-.4c.8.659,1.59,1.347,2.359,2.044Zm-88.106-2.366-.327-.4c.8-.653,1.63-1.3,2.462-1.914l.309.416C362.65,57.029,361.827,57.667,361.032,58.315Zm83.333-1.583c-.823-.62-1.67-1.228-2.517-1.808l.293-.428c.854.584,1.707,1.2,2.537,1.821ZM366,54.631l-.289-.43c.858-.577,1.741-1.142,2.625-1.68l.269.443C367.73,53.5,366.854,54.058,366,54.631Zm73.247-1.4c-.876-.542-1.775-1.07-2.673-1.571l.252-.453c.9.5,1.811,1.037,2.694,1.583Zm-67.964-1.817-.249-.455c.908-.5,1.838-.978,2.766-1.432l.228.466c-.921.45-1.844.928-2.745,1.421Zm62.548-1.2c-.922-.459-1.867-.9-2.808-1.319l.21-.474c.948.419,1.9.866,2.83,1.329Zm-57-1.514-.206-.476c.948-.411,1.919-.805,2.884-1.172l.184.485C378.741,47.9,377.778,48.294,376.837,48.7Zm51.322-.994c-.96-.372-1.942-.727-2.919-1.055l.165-.491c.985.331,1.975.688,2.942,1.063Zm-45.541-1.2-.161-.492c.985-.323,1.99-.627,2.987-.9l.139.5C384.592,45.885,383.6,46.186,382.618,46.507Zm39.664-.771c-.988-.282-2-.544-3-.78l.119-.5c1.008.237,2.023.5,3.02.786Zm-33.7-.885-.115-.505c1.01-.231,2.038-.441,3.057-.625l.092.51C390.606,44.414,389.586,44.622,388.584,44.851Zm27.673-.536c-1.009-.189-2.037-.358-3.055-.5l.072-.513c1.026.144,2.062.314,3.079.5Zm-21.58-.564-.069-.514c1.026-.137,2.069-.252,3.1-.342l.045.516C396.73,43.5,395.695,43.616,394.677,43.752Zm15.449-.3c-1.021-.1-2.06-.17-3.089-.22l.025-.518c1.036.05,2.083.125,3.112.222Zm-9.281-.241-.022-.518c.953-.04,1.923-.06,2.886-.06h.235l0,.518h-.233c-.955,0-1.919.02-2.864.06Z" transform="translate(-297.4 -42.636)" fill="#3f3d56"/>
      <path id="Path_2" data-name="Path 2" d="M213.611,624.854c-1.556,5.75-6.884,9.312-6.884,9.312s-2.806-5.762-1.251-11.512,6.884-9.312,6.884-9.312S215.167,619.1,213.611,624.854Z" transform="translate(-191.078 -507.432)" fill="#0090aa"/>
      <path id="Path_3" data-name="Path 3" d="M173.054,624.854c1.556,5.75,6.884,9.312,6.884,9.312s2.806-5.762,1.251-11.512-6.884-9.312-6.884-9.312S171.5,619.1,173.054,624.854Z" transform="translate(-164.672 -507.432)" fill="#0090aa"/>
      <path id="Path_4" data-name="Path 4" d="M140.617,648.948c4.268,4.155,4.79,10.543,4.79,10.543s-6.4-.349-10.668-4.5-4.79-10.543-4.79-10.543S136.349,644.793,140.617,648.948Z" transform="translate(-129.95 -532.761)" fill="#3f3d56"/>
      <path id="Path_5" data-name="Path 5" d="M218.033,648.948c-4.268,4.155-4.79,10.543-4.79,10.543s6.4-.349,10.668-4.5,4.79-10.543,4.79-10.543S222.3,644.793,218.033,648.948Z" transform="translate(-197.786 -532.761)" fill="#3f3d56"/>
      <ellipse id="Ellipse_3" data-name="Ellipse 3" cx="15.772" cy="2.441" rx="15.772" ry="2.441" transform="translate(138.16 146.314)" fill="#3f3d56"/>
      <path id="Path_6" data-name="Path 6" d="M959.72,708.64c-2.013,7.442-8.91,12.052-8.91,12.052s-3.632-7.457-1.619-14.9,8.91-12.052,8.91-12.052S961.733,701.2,959.72,708.64Z" transform="translate(-796.664 -572.909)" fill="#0090aa"/>
      <path id="Path_7" data-name="Path 7" d="M907.226,708.64c2.013,7.442,8.909,12.052,8.909,12.052s3.632-7.457,1.619-14.9-8.909-12.052-8.909-12.052S905.213,701.2,907.226,708.64Z" transform="translate(-762.486 -572.909)" fill="#0090aa"/>
      <path id="Path_8" data-name="Path 8" d="M865.243,739.824c5.525,5.378,6.2,13.645,6.2,13.645s-8.282-.452-13.807-5.83-6.2-13.645-6.2-13.645S859.718,734.446,865.243,739.824Z" transform="translate(-717.544 -605.693)" fill="#3f3d56"/>
      <path id="Path_9" data-name="Path 9" d="M965.442,739.824c-5.525,5.378-6.2,13.645-6.2,13.645s8.282-.452,13.807-5.83,6.2-13.645,6.2-13.645S970.967,734.446,965.442,739.824Z" transform="translate(-805.345 -605.693)" fill="#3f3d56"/>
      <ellipse id="Ellipse_4" data-name="Ellipse 4" cx="45.188" cy="6.992" rx="45.188" ry="6.992" transform="translate(30.979 128.287)" fill="#3f3d56"/>
      <circle id="Ellipse_5" data-name="Ellipse 5" cx="3.089" cy="3.089" r="3.089" transform="translate(94.648 39.835)" fill="#2f2e41"/>
      <path id="Path_10" data-name="Path 10" d="M635.857,253.245a3.088,3.088,0,0,1,2.757-3.07,3.089,3.089,0,1,0,0,6.14A3.089,3.089,0,0,1,635.857,253.245Z" transform="translate(-541.429 -211.645)" fill="#2f2e41"/>
      <path id="Path_11" data-name="Path 11" d="M639.847,273.932s-.48,2.206,2.518,3.089" transform="translate(-545.199 -231.009)" fill="#007084"/>
      <circle id="Ellipse_6" data-name="Ellipse 6" cx="10.369" cy="10.369" r="10.369" transform="translate(88.646 43.165)" fill="#2f2e41"/>
      <path id="Path_12" data-name="Path 12" d="M607.921,505.383l-.371,7.794,17.815,5.938s-.928-9.836-.371-10.763Z" transform="translate(-518.918 -419.507)" fill="#a0616a"/>
      <path id="Path_13" data-name="Path 13" d="M316.271,649.747l-1.67,6.5H322.4v-6.5Z" transform="translate(-256.218 -529.169)" fill="#a0616a"/>
      <path id="Path_14" data-name="Path 14" d="M541.6,633.149l3.526,1.242,1.856-4.66-3.155-2.485Z" transform="translate(-441.092 -510.844)" fill="#a0616a"/>
      <path id="Path_15" data-name="Path 15" d="M680.907,657.935s5.258-.691,5.258,3.763.742,15.4-6.681,14.1c0,0-3.34.371-2.041-3.526,0,0,1.322-1.585.847-2.556s-3.259-1.713-2.888-2.269,4.454-5.011,4.454-5.011Z" transform="translate(-574.15 -543.718)" fill="#2f2e41"/>
      <path id="Path_16" data-name="Path 16" d="M491.673,527.753l-18.187-6.31-1.113,4.454s-27.28-15.774-28.95-5.011a62.276,62.276,0,0,0,.742,20.228l.186,9.279s4.639,1.113,6.866.186l.186-10.021s1.856-6.5.928-11.506c0,0,13.918,10.949,20.228,12.248,0,0-22.084,17.073-19.486,22.455s5.753,6.31,9.836,5.382c2.813-.639,15.409-10.8,22.969-17.051a21.434,21.434,0,0,0,7.824-17.63A12.675,12.675,0,0,0,491.673,527.753Z" transform="translate(-384.854 -429.073)" fill="#2f2e41"/>
      <path id="Path_17" data-name="Path 17" d="M387.383,707.689s-.186-2.227-1.3-1.3-5.011,4.454-5.011,4.454-14.1,3.712-5.567,7.237a21.168,21.168,0,0,0,11.506-1.485s9.485.272,9.289-2.091-2.423-6.309-2.423-6.309-2.6,1.9-5.567-.693Z" transform="translate(-327.701 -583.028)" fill="#2f2e41"/>
      <circle id="Ellipse_7" data-name="Ellipse 7" cx="6.866" cy="6.866" r="6.866" transform="translate(89.56 50.801)" fill="#a0616a"/>
      <path id="Path_18" data-name="Path 18" d="M624.984,355.383s1.113,5.567,3.155,6.866l-11.32,13.362-4.268-4.083,3.155-5.567s3.526-2.041,2.413-4.825Z" transform="translate(-522.991 -297.344)" fill="#a0616a"/>
      <path id="Path_19" data-name="Path 19" d="M682,395.383s8.165,1.67,9.093,7.052-.928,15.217-.928,15.217l-3.9,28.95s-.186,12.248-5.011,10.207,1.3-11.32,1.3-11.32l1.67-18.187s.742-15.4-.742-17.259l-5.938-1.856S678.849,395.94,682,395.383Z" transform="translate(-575.928 -329.921)" fill="#a0616a"/>
      <path id="Path_20" data-name="Path 20" d="M413.146,412.378a11.99,11.99,0,0,0-9.093,4.268c-3.526,4.454-12.063,7.794-12.063,7.794l-21.341,8.351s-3.9-6.866-6.31-4.454,4.454,8.537,7.609,7.794,22.269-6.5,22.269-6.5l15.217-6.866Z" transform="translate(-320.432 -343.761)" fill="#a0616a"/>
      <path id="Path_21" data-name="Path 21" d="M612.515,390s-7.135,9.535-10.29,9.35-1.03-5.824-1.03-5.824l-2.227.557s-3.053,5.824-3.424,6.2c0,0-4.454,7.238.557,8.908l.186,3.9s12.434-.557,17.815,2.227l1.113-9.65s-7.052-3.526-3.155-10.392c0,0,1.383-3.6,2.867-3.968Z" transform="translate(-507.655 -325.537)" fill="#d0cde1"/>
      <path id="Path_22" data-name="Path 22" d="M580.444,664.883,552.05,685.668S580.629,668.78,580.444,664.883Z" transform="translate(-473.718 -549.408)" opacity="0.1"/>
      <path id="Path_23" data-name="Path 23" d="M622.516,309.952c-3.655,0-6.618,1.728-6.618,3.861a3.14,3.14,0,0,0,1.579,2.5l1.274-.923-.346,1.446c.144.067.291.131.444.191l1.9-2.221v2.728a11.1,11.1,0,0,0,1.765.14c3.655,0,6.618-1.728,6.618-3.861S626.171,309.952,622.516,309.952Z" transform="translate(-525.716 -260.344)" fill="#2f2e41"/>
      <circle id="Ellipse_8" data-name="Ellipse 8" cx="3.089" cy="3.089" r="3.089" transform="translate(107.268 44.66)" fill="#2f2e41"/>
      <path id="Path_24" data-name="Path 24" d="M703.857,279.245a3.088,3.088,0,0,1,2.757-3.07,3.088,3.088,0,1,0,0,6.14A3.089,3.089,0,0,1,703.857,279.245Z" transform="translate(-596.81 -232.82)" fill="#2f2e41"/>
      <path id="Path_25" data-name="Path 25" d="M707.847,299.932s-.48,2.206,2.518,3.089" transform="translate(-600.58 -252.184)" fill="#007084"/>
      <ellipse id="Ellipse_9" data-name="Ellipse 9" cx="0.536" cy="1.206" rx="0.536" ry="1.206" transform="translate(103.035 55.905)" fill="#a0616a"/>
      <path id="Path_26" data-name="Path 26" d="M321.746,339.142l-8.137,1.972-.027.006-.885.8-.255.23-.546-.1-.966-.175.673-2.272.126-4.334-.463-2.651,2.567-1.767S318.843,330.557,321.746,339.142Z" transform="translate(-277.345 -277.364)" fill="#d0cde1"/>
      <path id="Path_27" data-name="Path 27" d="M313.609,341.118c-.11.235.121.08-.005.322l-1.178.379-.528.238-.966-.175.673-2.272.126-4.334-.463-2.651,2.567-1.767S316.59,334.759,313.609,341.118Z" transform="translate(-277.345 -277.369)" opacity="0.1"/>
      <path id="Path_28" data-name="Path 28" d="M337.583,341.968s-10.689,4.966-15.023,5.723-3.956,5.092-3.956,5.092L342.886,349A12.816,12.816,0,0,0,337.583,341.968Z" transform="translate(-283.587 -286.419)" fill="#d0cde1"/>
      <path id="Path_29" data-name="Path 29" d="M308.874,336.4a14.939,14.939,0,0,1-.21,10.1l2.4,1.094.926-1.094.021-.105-2.546-.231s2.1-5.639.379-9.553C309.842,336.613,309.463,335.772,308.874,336.4Z" transform="translate(-275.498 -281.695)" fill="#007084"/>
      <path id="Path_30" data-name="Path 30" d="M344.088,393.921c-9.468-2.1-18.285,2.251-18.285,2.251l-.024-.021-3.511-3.135L308.55,370.629l3.346.021c9.3-5.555,22.388-4.8,22.388-4.8C339.922,372.249,344.088,393.921,344.088,393.921Z" transform="translate(-275.406 -305.842)" fill="#0090aa"/>
      <path id="Path_31" data-name="Path 31" d="M325.78,417.264l-3.511-3.135L308.55,391.742l3.346.021S325.23,409.374,325.78,417.264Z" transform="translate(-275.406 -326.956)" opacity="0.1"/>
      <ellipse id="Ellipse_10" data-name="Ellipse 10" cx="5.429" cy="3.451" rx="5.429" ry="3.451" transform="translate(44.701 67.834) rotate(-17.052)" fill="#d0cde1"/>
    </g>
    <text id="search_your_favorite_books" data-name="search yourfavoritebooks" transform="translate(45 181)" fill="#fff" font-size="22" font-family="CooperBlack, Cooper"><tspan x="0" y="0">search your</tspan><tspan x="0" y="25">favorite</tspan><tspan x="0" y="50">books</tspan></text>
  </g>
</svg>
